Coordinates
version=1
nRows=24
nColumns=22
inDegrees=yes

Units are S.I. units (second, meters, Newtons, ...)
If the header above contains a line with 'inDegrees', this indicates whether rotational values are in degrees (yes) or radians (no).

endheader
time	pelvis_tilt	pelvis_list	pelvis_rotation	pelvis_tx	pelvis_ty	pelvis_tz	hip_flexion_r	hip_adduction_r	hip_rotation_r	knee_angle_r	ankle_angle_r	subtalar_angle_r	hip_flexion_l	hip_adduction_l	hip_rotation_l	knee_angle_l	ankle_angle_l	subtalar_angle_l	lumbar_extension	lumbar_bending	lumbar_rotation
      2.57000000	     -1.88902167	     -1.61659332	    -37.97336750	      0.15283371	      0.99230653	      0.14729148	     23.86890822	      1.08809097	    -22.28587220	    -24.18789258	      3.80539431	     -4.60977088	     -9.79742482	     -8.80275898	    -11.43487067	    -38.62362769	     -9.60853544	     13.27824811	     -1.03217307	      3.56193878	    -10.08828990
      2.58000000	     -1.89988731	     -1.79133042	    -38.30282963	      0.15924225	      0.99389585	      0.15683036	     23.22883263	      1.60341355	    -21.74181929	    -24.39104574	      4.25026388	     -4.90132466	     -8.68864271	     -9.37814473	    -11.45230049	    -41.18120007	    -10.54449388	     13.15529479	     -1.06607013	      3.67002447	    -10.12163853
      2.59000000	     -1.89258161	     -1.96886052	    -38.58879883	      0.16552191	      0.99545633	      0.16617092	     22.52191913	      2.08712307	    -21.30888430	    -24.50224284	      4.71023958	     -5.13787681	     -7.52406860	     -9.90724778	    -11.29553948	    -43.69664200	    -11.06637581	     12.99205366	     -1.13520303	      3.75485107	    -10.19245518
      2.60000000	     -1.87074747	     -2.13864244	    -38.83906524	      0.17168287	      0.99698494	      0.17528606	     21.76701806	      2.53483534	    -20.96213657	    -24.53010847	      5.17114193	     -5.34331692	     -6.30850689	    -10.35786697	    -10.95917170	    -46.11580210	    -11.16087348	     12.76805594	     -1.22765489	      3.81374168	    -10.28651118
      2.61000000	     -1.83323967	     -2.29272141	    -39.07133218	      0.17772942	      0.99848582	      0.18417501	     20.97898405	      2.94286819	    -20.67777671	    -24.48810313	      5.61730077	     -5.52500909	     -5.05672600	    -10.70909548	    -10.48124452	    -48.39009881	    -10.85231714	     12.48874370	     -1.33533883	      3.84404727	    -10.38245232
      2.62000000	     -1.78525167	     -2.42460157	    -39.31071988	      0.18363968	      0.99995682	      0.19287411	     20.17425090	      3.31968834	    -20.42102247	    -24.38506219	      6.04362667	     -5.69774679	     -3.78106327	    -10.95200712	     -9.90520779	    -50.48079685	    -10.19642382	     12.15697333	     -1.44693986	      3.84151168	    -10.44905229
      2.63000000	     -1.71908165	     -2.53501639	    -39.58216732	      0.18939581	      1.00141025	      0.20141673	     19.35636085	      3.66684823	    -20.16015639	    -24.23889595	      6.44488891	     -5.85844184	     -2.50802724	    -11.09113072	     -9.29970512	    -52.36399715	     -9.24763267	     11.81302694	     -1.56905402	      3.80391166	    -10.47189769
      2.64000000	     -1.64057418	     -2.61893009	    -39.91299013	      0.19497271	      1.00284222	      0.20986127	     18.53562019	      3.99445255	    -19.85991720	    -24.05156283	      6.81445473	     -6.01950003	     -1.24840269	    -11.13427604	     -8.71287622	    -54.02125558	     -8.09447394	     11.46195964	     -1.69001198	      3.72798361	    -10.41840333
      2.65000000	     -1.55283469	     -2.67732213	    -40.32194370	      0.20035189	      1.00424335	      0.21825304	     17.71760794	      4.31015375	    -19.49648536	    -23.83088602	      7.15000070	     -6.18799099	     -0.01294967	    -11.10054465	     -8.18951174	    -55.44696382	     -6.80798108	     11.10599128	     -1.80529407	      3.61641054	    -10.27373092
      2.66000000	     -1.45111096	     -2.71289047	    -40.82609089	      0.20550730	      1.00561916	      0.22663038	     16.89861738	      4.61643943	    -19.04808815	    -23.58189878	      7.45194572	     -6.36461532	      1.18345400	    -11.00137189	     -7.75506756	    -56.63744586	     -5.46414212	     10.74612942	     -1.92314447	      3.46579248	    -10.02958405
      2.67000000	     -1.34166018	     -2.73079585	    -41.42695138	      0.21043704	      1.00694951	      0.23501782	     16.08031762	      4.91986354	    -18.51113396	    -23.30806437	      7.72504964	     -6.55285356	      2.34109344	    -10.86456805	     -7.42937454	    -57.60142338	     -4.10244727	     10.36895818	     -2.03768719	      3.28544910	     -9.69200256
      2.68000000	     -1.22798325	     -2.73642763	    -42.12004563	      0.21513328	      1.00822837	      0.24342898	     15.26182157	      5.22428071	    -17.88818499	    -23.01198464	      7.97346833	     -6.75499171	      3.46133529	    -10.70581954	     -7.20087555	    -58.34526577	     -2.76237459	      9.96273571	     -2.15111669	      3.08162569	     -9.26948538
      2.69000000	     -1.11295491	     -2.73381314	    -42.88720035	      0.21961487	      1.00943330	      0.25183741	     14.44563139	      5.52358930	    -17.20936470	    -22.70115491	      8.19028244	     -7.01110709	      4.55262335	    -10.54047165	     -7.05853895	    -58.88344194	     -1.47119241	      9.44224623	     -2.26372346	      2.86185937	     -8.79001283
      2.70000000	     -1.00508771	     -2.73105566	    -43.74137174	      0.22386363	      1.01056096	      0.26029214	     13.62507529	      5.83802038	    -16.43095109	    -22.36526887	      8.41491325	     -7.20902359	      5.61343106	    -10.39498694	     -7.01337599	    -59.22340309	     -0.25694611	      9.02902963	     -2.37359404	      2.63788512	     -8.23836592
      2.71000000	     -0.90623985	     -2.72449093	    -44.64309976	      0.22793146	      1.01159332	      0.26873001	     12.80919581	      6.14630300	    -15.62149911	    -22.01538342	      8.62401962	     -7.43315828	      6.65926977	    -10.26309825	     -7.01925226	    -59.37391632	      0.86384776	      8.54725716	     -2.47639477	      2.41034051	     -7.65402525
      2.72000000	     -0.81623640	     -2.71740906	    -45.57496010	      0.23181728	      1.01252540	      0.27711176	     12.00131739	      6.44709166	    -14.77533863	    -21.66093875	      8.82095543	     -7.66645388	      7.69850237	    -10.14509430	     -7.04832013	    -59.34808774	      1.86781602	      8.01044397	     -2.58133537	      2.18501715	     -7.06374714
      2.73000000	     -0.73486246	     -2.70745563	    -46.50967753	      0.23558173	      1.01335511	      0.28541975	     11.20010047	      6.72625472	    -13.95425868	    -21.29897164	      9.02111474	     -7.90780064	      8.73232142	    -10.03616870	     -7.07513914	    -59.14457085	      2.77318470	      7.38498767	     -2.68050730	      1.96071924	     -6.48518065
      2.74000000	     -0.68618985	     -2.68787461	    -47.46707201	      0.23918221	      1.01405200	      0.29368652	     10.42730698	      7.00882695	    -13.09700611	    -20.92627852	      9.23246798	     -8.06077462	      9.78157766	     -9.95974813	     -7.11313549	    -58.77541588	      3.57377697	      6.97179722	     -2.75019267	      1.74913508	     -5.89535770
      2.75000000	     -0.64747756	     -2.67221947	    -48.40600031	      0.24266901	      1.01464969	      0.30181730	      9.66406917	      7.27458873	    -12.25917311	    -20.55231112	      9.43789041	     -8.21974185	     10.82462504	     -9.89071143	     -7.11296857	    -58.23735245	      4.27057030	      6.48924430	     -2.83109826	      1.54931991	     -5.33612401
      2.76000000	     -0.62714488	     -2.65957675	    -49.31843641	      0.24608378	      1.01513057	      0.30983811	      8.91584680	      7.52814313	    -11.45937443	    -20.18015853	      9.65663593	     -8.34858239	     11.86255795	     -9.83577951	     -7.06951514	    -57.53649291	      4.91088634	      6.06078956	     -2.90624396	      1.36609260	     -4.80972481
      2.77000000	     -0.62587233	     -2.65288943	    -50.20459874	      0.24947440	      1.01550650	      0.31775038	      8.17857270	      7.77142869	    -10.69409619	    -19.80758425	      9.88302995	     -8.44785776	     12.88257082	     -9.79133068	     -6.97840522	    -56.67016753	      5.49301124	      5.68926611	     -2.97497023	      1.20952857	     -4.32047654
      2.78000000	     -0.64303560	     -2.65468220	    -51.06174675	      0.25287414	      1.01578785	      0.32559453	      7.44573119	      8.00973905	     -9.95386450	    -19.43435078	     10.11225556	     -8.51767606	     13.86973301	     -9.76059566	     -6.84821761	    -55.63520053	      6.02125296	      5.36260380	     -3.03390203	      1.07626503	     -3.86668903
      2.79000000	     -0.68467768	     -2.65971634	    -51.89159936	      0.25634797	      1.01594827	      0.33335918	      6.73061900	      8.23718553	     -9.25760015	    -19.07573195	     10.36444847	     -8.55822623	     14.82549151	     -9.73961850	     -6.67836930	    -54.44265815	      6.56860358	      5.13514989	     -3.07130669	      0.97969053	     -3.43979835
      2.80000000	     -0.74131265	     -2.67011030	    -52.71281363	      0.25989341	      1.01602835	      0.34110974	      6.00961475	      8.45773090	     -8.54972796	    -18.71101943	     10.60357991	     -8.57109208	     15.72472431	     -9.72904767	     -6.50018037	    -53.08751331	      7.05449118	      4.92887482	     -3.08647153	      0.91074934	     -3.04406042
